<svg width="1400" height="599" viewBox="0 0 1400 599" fill="none" xmlns="http://www.w3.org/2000/svg">
<g clip-path="url(#clip0)">
<rect width="1400" height="599" fill="white"/>
<path d="M53.8261 154.221C-76.2656 63.0499 -182 -131 -182 -131H1400V550.887C1400 550.887 1188.95 608.223 1050.96 597.714C917.673 587.562 844.254 558.665 734.412 505.112C623.056 450.821 602.867 387.565 498.698 326.748C346.309 237.778 193.994 252.454 53.8261 154.221Z" fill="url(#paint0_linear)"/>
<path opacity="0.05" d="M1435 235C1435 309.006 1375.01 369 1301 369C1226.99 369 1167 309.006 1167 235C1167 160.994 1226.99 101 1301 101C1375.01 101 1435 160.994 1435 235ZM1183.56 235C1183.56 299.861 1236.14 352.441 1301 352.441C1365.86 352.441 1418.44 299.861 1418.44 235C1418.44 170.139 1365.86 117.559 1301 117.559C1236.14 117.559 1183.56 170.139 1183.56 235Z" fill="white"/>
<path opacity="0.05" d="M1291 126C1291 175.706 1250.71 216 1201 216C1151.29 216 1111 175.706 1111 126C1111 76.2944 1151.29 36 1201 36C1250.71 36 1291 76.2944 1291 126ZM1129.07 126C1129.07 165.725 1161.27 197.929 1201 197.929C1240.73 197.929 1272.93 165.725 1272.93 126C1272.93 86.2748 1240.73 54.0711 1201 54.0711C1161.27 54.0711 1129.07 86.2748 1129.07 126Z" fill="white"/>
<path opacity="0.05" d="M1252 407C1252 453.944 1213.94 492 1167 492C1120.06 492 1082 453.944 1082 407C1082 360.056 1120.06 322 1167 322C1213.94 322 1252 360.056 1252 407ZM1099.07 407C1099.07 444.518 1129.48 474.933 1167 474.933C1204.52 474.933 1234.93 444.518 1234.93 407C1234.93 369.482 1204.52 339.067 1167 339.067C1129.48 339.067 1099.07 369.482 1099.07 407Z" fill="white"/>
</g>
<defs>
<linearGradient id="paint0_linear" x1="161.157" y1="195.737" x2="1399.78" y2="219.045" gradientUnits="userSpaceOnUse">
<stop stop-color="#ED255D"/>
<stop offset="1" stop-color="#EC277D"/>
</linearGradient>
<clipPath id="clip0">
<rect width="1400" height="599" fill="white"/>
</clipPath>
</defs>
</svg>
