<svg width="1400" height="599" viewBox="0 0 1400 599" fill="none" xmlns="http://www.w3.org/2000/svg">
<g clip-path="url(#clip0)">
<rect width="1400" height="599" fill="white"/>
<g filter="url(#filter0_i)">
<path d="M53.8261 154.221C-76.2656 63.0499 -182 -131 -182 -131H1400V550.887C1400 550.887 1188.95 608.223 1050.96 597.714C917.673 587.562 844.254 558.665 734.412 505.112C623.056 450.821 602.867 387.565 498.698 326.748C346.309 237.778 193.994 252.454 53.8261 154.221Z" fill="#8897DD"/>
</g>
<g opacity="0.25" filter="url(#filter1_i)">
<path d="M190.826 122.221C60.7344 31.0499 -45 -163 -45 -163H1537V518.887C1537 518.887 1325.95 576.223 1187.96 565.714C1054.67 555.562 981.254 526.665 871.412 473.112C760.056 418.821 739.867 355.565 635.698 294.748C483.309 205.778 330.994 220.454 190.826 122.221Z" fill="#3961FF"/>
</g>
<path opacity="0.05" d="M1435 235C1435 309.006 1375.01 369 1301 369C1226.99 369 1167 309.006 1167 235C1167 160.994 1226.99 101 1301 101C1375.01 101 1435 160.994 1435 235ZM1183.56 235C1183.56 299.861 1236.14 352.441 1301 352.441C1365.86 352.441 1418.44 299.861 1418.44 235C1418.44 170.139 1365.86 117.559 1301 117.559C1236.14 117.559 1183.56 170.139 1183.56 235Z" fill="white"/>
<path opacity="0.05" d="M1291 126C1291 175.706 1250.71 216 1201 216C1151.29 216 1111 175.706 1111 126C1111 76.2944 1151.29 36 1201 36C1250.71 36 1291 76.2944 1291 126ZM1129.07 126C1129.07 165.725 1161.27 197.929 1201 197.929C1240.73 197.929 1272.93 165.725 1272.93 126C1272.93 86.2748 1240.73 54.0711 1201 54.0711C1161.27 54.0711 1129.07 86.2748 1129.07 126Z" fill="white"/>
<path opacity="0.06" d="M1222 396C1222 442.944 1183.94 481 1137 481C1090.06 481 1052 442.944 1052 396C1052 349.056 1090.06 311 1137 311C1183.94 311 1222 349.056 1222 396ZM1066.16 396C1066.16 435.126 1097.87 466.843 1137 466.843C1176.13 466.843 1207.84 435.126 1207.84 396C1207.84 356.874 1176.13 325.157 1137 325.157C1097.87 325.157 1066.16 356.874 1066.16 396Z" fill="white"/>
</g>
<defs>
<filter id="filter0_i" x="-182" y="-131" width="1602" height="734" filterUnits="userSpaceOnUse" color-interpolation-filters="sRGB">
<feFlood flood-opacity="0" result="BackgroundImageFix"/>
<feBlend mode="normal" in="SourceGraphic" in2="BackgroundImageFix" result="shape"/>
<feColorMatrix in="SourceAlpha" type="matrix" values="0 0 0 0 0 0 0 0 0 0 0 0 0 0 0 0 0 0 127 0" result="hardAlpha"/>
<feOffset dx="20" dy="4"/>
<feGaussianBlur stdDeviation="13"/>
<feComposite in2="hardAlpha" operator="arithmetic" k2="-1" k3="1"/>
<feColorMatrix type="matrix" values="0 0 0 0 0 0 0 0 0 0 0 0 0 0 0 0 0 0 0.13 0"/>
<feBlend mode="normal" in2="shape" result="effect1_innerShadow"/>
</filter>
<filter id="filter1_i" x="-45" y="-163" width="1602" height="734" filterUnits="userSpaceOnUse" color-interpolation-filters="sRGB">
<feFlood flood-opacity="0" result="BackgroundImageFix"/>
<feBlend mode="normal" in="SourceGraphic" in2="BackgroundImageFix" result="shape"/>
<feColorMatrix in="SourceAlpha" type="matrix" values="0 0 0 0 0 0 0 0 0 0 0 0 0 0 0 0 0 0 127 0" result="hardAlpha"/>
<feOffset dx="20" dy="4"/>
<feGaussianBlur stdDeviation="13"/>
<feComposite in2="hardAlpha" operator="arithmetic" k2="-1" k3="1"/>
<feColorMatrix type="matrix" values="0 0 0 0 0 0 0 0 0 0 0 0 0 0 0 0 0 0 0.3 0"/>
<feBlend mode="normal" in2="shape" result="effect1_innerShadow"/>
</filter>
<clipPath id="clip0">
<rect width="1400" height="599" fill="white"/>
</clipPath>
</defs>
</svg>
