<svg id="Capa_1" enable-background="new 0 0 512 512" height="512" viewBox="0 0 512 512" width="512" xmlns="http://www.w3.org/2000/svg" xmlns:xlink="http://www.w3.org/1999/xlink"><linearGradient id="SVGID_1_" gradientUnits="userSpaceOnUse" x1="48.606" x2="438.791" y1="463.622" y2="-1.382"><stop offset="0" stop-color="#d2deff" stop-opacity="0"/><stop offset=".6852" stop-color="#d2deff"/></linearGradient><path d="m418.32 2.5c-55.666-9.521-178.298 12.183-200.004 105.017-14.431 61.722-14.007 112.075-50.427 113.02-21.67.562-32.97-44.31-62.889-48.001-39.047-4.817-66.145 27.695-83.057 57.138-37.205 64.772-25.571 174.918 23.354 228.632 118.488 130.086 259.197-5.952 319.358-112.309 38.585-68.213 125.637-123.352 143.767-200.248 15.177-64.376-18.503-131.003-90.102-143.249z" fill="url(#SVGID_1_)"/><path d="m437.62 409.459h-360.481c-5.523 0-10-4.477-10-10v-286.469c0-5.523 4.477-10 10-10h360.481c5.523 0 10 4.477 10 10v286.468c0 5.524-4.477 10.001-10 10.001z" fill="#6583fe" opacity=".2"/><path d="m202.353 480.282 193.005-3.443c5.452-.097 9.822-4.545 9.822-9.998v-7.571c0-5.453-4.369-9.901-9.822-9.998l-193.005-3.443c-14.023-.25-27.784-3.436-40.424-9.283-2.317-1.072-4.985-1.08-7.298-.001l-24.528 11.442c-3.521 1.643-5.772 5.177-5.772 9.062v12.012c0 3.886 2.251 7.42 5.772 9.062l24.528 11.442c2.314 1.079 4.981 1.071 7.298-.001 12.64-5.845 26.401-9.031 40.424-9.282z" fill="#6583fe" opacity=".2"/><path d="m304.419 94.514h-94.079v-33.666c0-5.523 4.477-10 10-10h74.079c5.523 0 10 4.477 10 10z" fill="#ff5ba8"/><path d="m437.62 389.459h-360.481c-5.523 0-10-4.477-10-10v-286.469c0-5.523 4.477-10 10-10h360.481c5.523 0 10 4.477 10 10v286.468c0 5.524-4.477 10.001-10 10.001z" fill="#ffc4df"/><g fill="#ff5ba8"><path d="m409.123 362.519h-303.486c-5.523 0-10-4.477-10-10v-177.646c0-5.523 4.477-10 10-10h303.487c5.523 0 10 4.477 10 10v177.646c-.001 5.523-4.478 10-10.001 10z"/><path d="m137.514 106.157 1.81 1.81c1.953 1.953 1.953 5.118 0 7.071l-13.435 13.435c-1.953 1.953-5.118 1.953-7.071 0l-1.505-1.505c-5.685-5.685-6.023-15.013-.378-20.737 2.837-2.877 6.582-4.324 10.326-4.316 3.712-.008 7.418 1.406 10.253 4.242z"/><path d="m132.96 135.544 13.435-13.435c1.953-1.953 5.118-1.953 7.071 0l1.81 1.81c5.657 5.657 5.664 14.842 0 20.506s-14.849 5.657-20.506 0l-1.81-1.81c-1.952-1.953-1.952-5.119 0-7.071z"/><path d="m377.245 106.157-1.81 1.81c-1.953 1.953-1.953 5.118 0 7.071l13.435 13.435c1.953 1.953 5.118 1.953 7.071 0l1.505-1.505c5.685-5.685 6.023-15.013.378-20.737-2.837-2.877-6.582-4.324-10.326-4.316-3.712-.008-7.417 1.406-10.253 4.242z"/><path d="m381.799 135.544-13.435-13.435c-1.953-1.953-5.118-1.953-7.071 0l-1.81 1.81c-5.657 5.657-5.664 14.842 0 20.506s14.849 5.657 20.506 0l1.81-1.81c1.953-1.953 1.953-5.119 0-7.071z"/><circle cx="206.577" cy="119.408" r="3.764"/><circle cx="231.978" cy="119.408" r="3.764"/><circle cx="282.781" cy="119.408" r="3.764"/><circle cx="308.183" cy="119.408" r="3.764"/></g><path d="m123.392 199.681v-5.5c0-2.761 2.239-5 5-5h5.5c2.761 0 5 2.239 5 5s-2.239 5-5 5h-.5v.5c0 2.761-2.239 5-5 5s-5-2.239-5-5z" fill="#ffc4df"/><path d="m391.367 199.681v-5.5c0-2.761-2.239-5-5-5h-5.5c-2.761 0-5 2.239-5 5s2.239 5 5 5h.5v.5c0 2.761 2.239 5 5 5s5-2.239 5-5z" fill="#ffc4df"/><path d="m391.367 326.848v5.5c0 2.761-2.239 5-5 5h-5.5c-2.761 0-5-2.239-5-5s2.239-5 5-5h.5v-.5c0-2.761 2.239-5 5-5s5 2.238 5 5z" fill="#ffc4df"/><path d="m123.392 326.848v5.5c0 2.761 2.239 5 5 5h5.5c2.761 0 5-2.239 5-5s-2.239-5-5-5h-.5v-.5c0-2.761-2.239-5-5-5s-5 2.238-5 5z" fill="#ffc4df"/><path d="m202.353 460.282 193.005-3.443c5.452-.097 9.822-4.545 9.822-9.998v-7.571c0-5.453-4.369-9.901-9.822-9.998l-193.005-3.443c-14.023-.25-27.784-3.436-40.424-9.283-2.317-1.072-4.985-1.08-7.298-.001l-24.528 11.442c-3.521 1.643-5.772 5.177-5.772 9.062v12.012c0 3.886 2.251 7.42 5.772 9.062l24.528 11.442c2.314 1.079 4.981 1.071 7.298-.001 12.64-5.845 26.401-9.031 40.424-9.282z" fill="#ff7eb8"/><path d="m154.631 416.545-24.528 11.442c-3.521 1.643-5.772 5.177-5.772 9.062v12.012c0 3.886 2.251 7.42 5.772 9.062l24.528 11.442z" fill="#ffdbed"/><path d="m193.63 425.286c2.89.31 5.8.49 8.72.54l43.23.77v11.46c0 2.761-2.239 5-5 5h-41.95c-2.761 0-5-2.239-5-5z" fill="#ff5ba8"/><path d="m395.358 429.272-48.478-.865v29.297l48.478-.865c5.452-.097 9.822-4.545 9.822-9.999v-7.571c0-5.452-4.369-9.9-9.822-9.997z" fill="#ffdbed"/><path d="m62.14 450.756c-1.28 0-2.559-.488-3.536-1.464-1.953-1.953-1.953-5.119 0-7.071l10-10c1.953-1.952 5.118-1.952 7.071 0 1.953 1.953 1.953 5.119 0 7.071l-10 10c-.976.976-2.256 1.464-3.535 1.464z" fill="#ff7eb8"/><path d="m126.143 58.627c-1.28 0-2.559-.488-3.536-1.464-1.953-1.953-1.953-5.119 0-7.071l10-10c1.953-1.952 5.118-1.952 7.071 0 1.953 1.953 1.953 5.119 0 7.071l-10 10c-.976.976-2.256 1.464-3.535 1.464z" fill="#ff7eb8"/><path d="m482.62 226.756c-2.761 0-5-2.239-5-5 0-3.309-2.691-6-6-6-2.761 0-5-2.239-5-5s2.239-5 5-5c3.309 0 6-2.692 6-6 0-2.761 2.239-5 5-5s5 2.239 5 5c0 3.309 2.691 6 6 6 2.761 0 5 2.239 5 5s-2.239 5-5 5c-3.309 0-6 2.691-6 6 0 2.761-2.239 5-5 5z" fill="#6583fe"/><path d="m170.522 48.627c-2.761 0-5-2.239-5-5 0-3.309-2.691-6-6-6-2.761 0-5-2.239-5-5s2.239-5 5-5c3.309 0 6-2.691 6-6 0-2.761 2.239-5 5-5s5 2.239 5 5c0 3.309 2.691 6 6 6 2.761 0 5 2.239 5 5s-2.239 5-5 5c-3.309 0-6 2.691-6 6 0 2.762-2.239 5-5 5z" fill="#01eca5"/><path d="m29.38 378.454c-2.761 0-5-2.239-5-5 0-3.309-2.691-6-6-6-2.761 0-5-2.239-5-5s2.239-5 5-5c3.309 0 6-2.691 6-6 0-2.761 2.239-5 5-5s5 2.239 5 5c0 3.309 2.691 6 6 6 2.761 0 5 2.239 5 5s-2.239 5-5 5c-3.309 0-6 2.691-6 6 0 2.761-2.239 5-5 5z" fill="#01eca5"/><path d="m419.123 279.5c2.761 0 5-2.239 5-5v-99.627c0-8.271-6.729-15-15-15h-303.486c-8.271 0-15 6.729-15 15v177.646c0 8.271 6.729 15 15 15h303.486c8.271 0 15-6.729 15-15v-44.019c0-2.761-2.239-5-5-5s-5 2.239-5 5v44.019c0 2.757-2.243 5-5 5h-303.486c-2.757 0-5-2.243-5-5v-177.646c0-2.757 2.243-5 5-5h303.486c2.757 0 5 2.243 5 5v99.627c0 2.761 2.239 5 5 5z" fill="#2626bc"/><path d="m395.447 424.273-193.005-3.442c-13.35-.239-26.274-3.207-38.415-8.822-3.583-1.657-7.665-1.682-11.25-.099-.052.021-.103.039-.154.062-.035.016-.072.027-.107.043l-24.528 11.442c-5.26 2.453-8.658 7.789-8.658 13.593v1.006h-9.751c-2.761 0-5 2.239-5 5s2.239 5 5 5h9.751v1.006c0 5.804 3.398 11.14 8.658 13.593l24.527 11.442c.035.016.071.027.106.042.052.023.106.042.159.064 1.751.773 3.617 1.172 5.489 1.172 1.961 0 3.925-.424 5.757-1.271 12.14-5.615 25.064-8.583 38.415-8.822l193.004-3.442c8.124-.145 14.733-6.873 14.733-14.998v-7.571c.002-8.125-6.607-14.854-14.731-14.998zm-154.867 7.239v6.544h-21v-6.918zm-31-.553v7.097h-10.95v-7.361c1.208.063 2.419.112 3.634.134zm-80.249 18.103v-12.012c0-1.935 1.133-3.713 2.886-4.531l17.414-8.124v37.322l-17.414-8.124c-1.753-.818-2.886-2.596-2.886-4.531zm270.849-2.221c0 2.708-2.203 4.951-4.911 5l-193.005 3.442c-14.748.263-29.025 3.542-42.434 9.744-.064.03-.133.041-.199.067v-44.077c.065.026.134.037.199.067 9.232 4.27 18.875 7.154 28.8 8.623v8.349c0 5.514 4.486 10 10 10h41.95c5.514 0 10-4.486 10-10v-6.365l144.689 2.581c2.708.048 4.911 2.291 4.911 5z" fill="#2626bc"/><path d="m437.62 77.99h-89.12c-2.761 0-5 2.239-5 5s2.239 5 5 5h89.12c2.757 0 5 2.243 5 5v286.469c0 2.757-2.243 5-5 5h-360.48c-2.757 0-5-2.243-5-5v-286.469c0-2.757 2.243-5 5-5h227.28c2.761 0 5-2.239 5-5v-22.142c0-8.271-6.729-15-15-15h-74.08c-8.271 0-15 6.729-15 15v17.142h-128.2c-8.271 0-15 6.729-15 15v286.469c0 8.271 6.729 15 15 15h360.48c8.271 0 15-6.729 15-15v-286.469c0-8.271-6.729-15-15-15zm-222.28-17.142c0-2.757 2.243-5 5-5h74.079c2.757 0 5 2.243 5 5v17.142h-84.079z" fill="#2626bc"/></svg>