<svg width="500" height="500" viewBox="0 0 500 500" fill="none" xmlns="http://www.w3.org/2000/svg">
<circle cx="250" cy="250" r="250" fill="#8FC9FF"/>
<path d="M365.828 210.953V327.593C365.828 342.617 353.651 354.793 338.633 354.793H222.379L167.207 415.483V354.793H128.194C113.177 354.793 101 342.617 101 327.599V210.959C101 195.935 113.177 183.759 128.194 183.759H338.628C353.651 183.759 365.828 195.935 365.828 210.953Z" fill="#0391FD"/>
<path d="M393.805 106.517H183.367C168.349 106.517 156.172 118.694 156.172 133.717V183.759H338.633C353.651 183.759 365.828 195.935 365.828 210.959V277.552H393.805C408.823 277.552 421 265.375 421 250.352V133.717C421 118.694 408.823 106.517 393.805 106.517Z" fill="#0F71D3"/>
<path d="M238.931 244.531H161.69C158.639 244.531 156.172 242.059 156.172 239.014C156.172 235.968 158.639 233.497 161.69 233.497H238.931C241.982 233.497 244.448 235.968 244.448 239.014C244.448 242.059 241.982 244.531 238.931 244.531Z" fill="white"/>
<path d="M310.655 277.635H161.69C158.639 277.635 156.172 275.163 156.172 272.117C156.172 269.072 158.639 266.6 161.69 266.6H310.655C313.706 266.6 316.172 269.072 316.172 272.117C316.172 275.163 313.706 277.635 310.655 277.635Z" fill="white"/>
<path d="M310.655 310.738H161.69C158.639 310.738 156.172 308.266 156.172 305.221C156.172 302.175 158.639 299.703 161.69 299.703H310.655C313.706 299.703 316.172 302.175 316.172 305.221C316.172 308.266 313.706 310.738 310.655 310.738Z" fill="white"/>
</svg>
